<?xml version="1.0" encoding="utf-8"?>
<!-- Generator: Adobe Illustrator 25.0.0, SVG Export Plug-In . SVG Version: 6.00 Build 0)  -->
<svg version="1.1" id="레이어_1" xmlns="http://www.w3.org/2000/svg" xmlns:xlink="http://www.w3.org/1999/xlink" x="0px"
	 y="0px" viewBox="0 0 708.66 141.73" style="enable-background:new 0 0 708.66 141.73;" xml:space="preserve">
<style type="text/css">
	.st0{fill:#7BC17A;}
	.st1{fill:#231815;}
</style>
<path class="st0" d="M329.77,86.98V54.76h49.12v32.22H329.77z"/>
<path class="st1" d="M334.21,84.57V58.37h7.38v5.44c0,0.14,0.11,0.25,0.25,0.25l0,0c0.55-2.94,2.59-5.69,6.69-5.69h1.3v6.89h-1.85
	c-4.34,0-6.39,0.95-6.39,3.99v15.32H334.21z"/>
<path class="st1" d="M352.47,71.45c0-8.23,4.39-13.67,12.27-13.67c8.68,0,12.17,6.34,12.17,13.37v2.2H360.1v0.4
	c0,3.44,1.8,5.64,5.79,5.64c3.04,0,4.79-1.4,6.44-3.14l3.69,4.59c-2.34,2.74-6.19,4.34-10.98,4.34
	C357.01,85.16,352.47,79.83,352.47,71.45z M360.1,68.6V69h9.18v-0.45c0-3.19-1.4-5.34-4.39-5.34C361.9,63.21,360.1,65.36,360.1,68.6
	z"/>
</svg>
