<?xml version="1.0" encoding="utf-8"?>
<!-- Generator: Adobe Illustrator 25.0.0, SVG Export Plug-In . SVG Version: 6.00 Build 0)  -->
<svg version="1.1" id="레이어_1" xmlns="http://www.w3.org/2000/svg" xmlns:xlink="http://www.w3.org/1999/xlink" x="0px"
	 y="0px" viewBox="0 0 365 90" style="enable-background:new 0 0 365 90;" xml:space="preserve">
<style type="text/css">
	.st0{fill:#7BC17A;}
	.st1{fill:#231815;}
	.st2{font-family:'NotoSansKR-Bold-KSCpc-EUC-H';}
	.st3{font-size:28.6772px;}
</style>
<path class="st0" d="M12.8,79.9V10.1h106.3v69.7H12.8z"/>
<path class="st1" d="M22.4,74.6V18h16v11.8c0,0.3,0.2,0.5,0.5,0.5l0,0C40.1,23.9,44.5,18,53.4,18h2.8v14.9h-4
	c-9.4,0-13.8,2.1-13.8,8.6v33.1H22.4z"/>
<path class="st1" d="M61.9,46.3c0-17.8,9.5-29.6,26.6-29.6c18.8,0,26.3,13.7,26.3,28.9v4.8H78.4v0.9c0,7.4,3.9,12.2,12.5,12.2
	c6.6,0,10.4-3,13.9-6.8l8,9.9c-5.1,5.9-13.4,9.4-23.8,9.4C71.7,75.9,61.9,64.4,61.9,46.3z M78.4,40.1V41h19.9v-1
	c0-6.9-3-11.6-9.5-11.6C82.3,28.4,78.4,33.1,78.4,40.1z"/>
<path class="st1" d="M121.5,65.8l9.4-9.5c4,4.4,8.9,7.2,15,7.2c6.4,0,8.4-2.1,8.4-5.4c0-2.7-1.9-4.2-5.7-4.8l-6.2-0.8
	c-12.7-1.6-19.1-7.4-19.1-17.5c0-10.9,8.6-18.5,22-18.5c12,0,17.3,3.3,23.1,8.9l-9.2,9.4c-3.6-3.6-8.3-5.8-13.1-5.8
	c-5.5,0-7.6,1.8-7.6,4.8c0,3,1.3,4.5,5.9,5.3L151,40c12.4,1.6,18.7,7.3,18.7,17.1c0,10.9-9.6,18.9-24.3,18.9
	C134.5,75.9,127.5,72.3,121.5,65.8z"/>
<path class="st1" d="M177.3,74.6v-9.1h9.4v9.1H177.3z"/>
<text transform="matrix(0.9723 0 0 1 171.9521 58.8661)" class="st1 st2 st3">administrator</text>
</svg>
