<?xml version="1.0" encoding="utf-8"?>
<!-- Generator: Adobe Illustrator 25.0.0, SVG Export Plug-In . SVG Version: 6.00 Build 0)  -->
<svg version="1.1" id="레이어_1" xmlns="http://www.w3.org/2000/svg" xmlns:xlink="http://www.w3.org/1999/xlink" x="0px"
	 y="0px" viewBox="0 0 90 73" style="enable-background:new 0 0 90 73;" xml:space="preserve">
<style type="text/css">
	.st0{fill:#7BC17A;}
	.st1{fill:#231815;}
</style>
<path class="st0" d="M6.7,61V12h74.6V61H6.7z"/>
<path class="st1" d="M13.5,57.3V17.5h11.2v8.3c0,0.2,0.2,0.4,0.4,0.4h0c0.8-4.5,3.9-8.6,10.1-8.6h2V28h-2.8c-6.6,0-9.7,1.4-9.7,6.1
	v23.2H13.5z"/>
<path class="st1" d="M41.2,37.4c0-12.5,6.7-20.8,18.6-20.8c13.2,0,18.5,9.6,18.5,20.3v3.3H52.8v0.6c0,5.2,2.7,8.6,8.8,8.6
	c4.6,0,7.3-2.1,9.8-4.8l5.6,7c-3.6,4.2-9.4,6.6-16.7,6.6C48.1,58.2,41.2,50.1,41.2,37.4z M52.8,33.1v0.6h13.9V33
	c0-4.8-2.1-8.1-6.7-8.1C55.5,24.9,52.8,28.1,52.8,33.1z"/>
</svg>
